<svg width="1080" height="1080" viewBox="0 0 1080 1080" fill="none" xmlns="http://www.w3.org/2000/svg">
<g clip-path="url(#clip0_426_1692)">
<path d="M1.5 985C1.5 974.783 9.78273 966.5 20 966.5H1060C1070.22 966.5 1078.5 974.783 1078.5 985V1078.5H1.5V985Z" fill="#F2F2F2" stroke="#42A5F5" stroke-width="3"/>
<path d="M0 1048C0 1036.95 8.95431 1028 20 1028H1060C1071.05 1028 1080 1036.95 1080 1048V1080H0V1048Z" fill="#42A5F5"/>
<path d="M373.5 965V955H370L361 965H373.5Z" fill="#085491"/>
<path d="M706.5 965V955H710L719 965H706.5Z" fill="#085491"/>
<path d="M370 955H710V1014C710 1019.52 705.523 1024 700 1024H380C374.477 1024 370 1019.52 370 1014V955Z" fill="#42A5F5"/>
</g>
<defs>
<clipPath id="clip0_426_1692">
<rect width="1080" height="1080" fill="white"/>
</clipPath>
</defs>
</svg>
