<svg width="1080" height="1080" viewBox="0 0 1080 1080" fill="none" xmlns="http://www.w3.org/2000/svg">
<g clip-path="url(#clip0_426_1567)">
<path d="M1047.5 165C1050.83 123.579 1050.83 56.4214 1047.5 15C1044.17 56.4214 1044.17 123.579 1047.5 165Z" fill="#439A97"/>
<path d="M915 33.5C956.421 36.8333 1023.58 36.8333 1065 33.5C1023.58 30.1667 956.421 30.1667 915 33.5Z" fill="#439A97"/>
<path d="M1047.5 915C1050.83 956.421 1050.83 1023.58 1047.5 1065C1044.17 1023.58 1044.17 956.421 1047.5 915Z" fill="#439A97"/>
<path d="M915 1046.5C956.421 1043.17 1023.58 1043.17 1065 1046.5C1023.58 1049.83 956.421 1049.83 915 1046.5Z" fill="#439A97"/>
<path d="M165 32.5C123.579 29.1667 56.4214 29.1667 15 32.5C56.4214 35.8333 123.579 35.8333 165 32.5Z" fill="#439A97"/>
<path d="M33.5 165C36.8333 123.579 36.8333 56.4214 33.5 15C30.1667 56.4214 30.1667 123.579 33.5 165Z" fill="#439A97"/>
<path d="M165 1047.5C123.579 1050.83 56.4214 1050.83 15 1047.5C56.4214 1044.17 123.579 1044.17 165 1047.5Z" fill="#439A97"/>
<path d="M33.5 915C36.8333 956.421 36.8333 1023.58 33.5 1065C30.1667 1023.58 30.1667 956.421 33.5 915Z" fill="#439A97"/>
<path d="M33.5 738C36.8333 710.662 36.8333 666.338 33.5 639C30.1667 666.338 30.1667 710.662 33.5 738Z" fill="#97DECE"/>
<path d="M1047.5 738C1050.83 710.662 1050.83 666.338 1047.5 639C1044.17 666.338 1044.17 710.662 1047.5 738Z" fill="#97DECE"/>
<path d="M1047.5 441C1050.83 413.662 1050.83 369.338 1047.5 342C1044.17 369.338 1044.17 413.662 1047.5 441Z" fill="#97DECE"/>
<path d="M33.5 441C36.8333 413.662 36.8333 369.338 33.5 342C30.1667 369.338 30.1667 413.662 33.5 441Z" fill="#97DECE"/>
<path d="M615 1046.5C573.579 1043.17 506.421 1043.17 465 1046.5C506.421 1049.83 573.579 1049.83 615 1046.5Z" fill="#439A97"/>
<path d="M738 1046.5C710.662 1043.17 666.338 1043.17 639 1046.5C666.338 1049.83 710.662 1049.83 738 1046.5Z" fill="#97DECE"/>
<path d="M441 1046.5C413.662 1043.17 369.338 1043.17 342 1046.5C369.338 1049.83 413.662 1049.83 441 1046.5Z" fill="#97DECE"/>
</g>
<defs>
<clipPath id="clip0_426_1567">
<rect width="1080" height="1080" fill="white"/>
</clipPath>
</defs>
</svg>
