<svg width="132" height="35" viewBox="0 0 132 35" fill="none" xmlns="http://www.w3.org/2000/svg">
<path d="M10.6409 26.496H20.8984V34.56H0V0.576001H10.6409V26.496Z" fill="#1D2024"/>
<path d="M40.7834 34.896C37.588 34.896 34.6481 34.144 31.9639 32.64C29.3117 31.136 27.2027 29.056 25.6369 26.4C24.0711 23.744 23.2882 20.752 23.2882 17.424C23.2882 14.096 24.0711 11.104 25.6369 8.448C27.2027 5.792 29.3117 3.728 31.9639 2.256C34.6481 0.752 37.588 0 40.7834 0C43.9789 0 46.9028 0.752 49.555 2.256C52.2072 3.728 54.3003 5.792 55.8341 8.448C57.3999 11.104 58.1828 14.096 58.1828 17.424C58.1828 20.752 57.3999 23.744 55.8341 26.4C54.3003 29.056 52.1913 31.136 49.5071 32.64C46.8548 34.144 43.947 34.896 40.7834 34.896ZM40.7834 24.96C42.8924 24.96 44.5221 24.288 45.6725 22.944C46.8229 21.568 47.3981 19.728 47.3981 17.424C47.3981 15.088 46.8229 13.248 45.6725 11.904C44.5221 10.528 42.8924 9.84 40.7834 9.84C38.6425 9.84 36.9968 10.528 35.8464 11.904C34.6961 13.248 34.1209 15.088 34.1209 17.424C34.1209 19.728 34.6961 21.568 35.8464 22.944C36.9968 24.288 38.6425 24.96 40.7834 24.96Z" fill="#1D2024"/>
<path d="M82.824 12.192C82.4086 11.52 81.8174 11.008 81.0505 10.656C80.2836 10.272 79.3569 10.08 78.2704 10.08C76.2253 10.08 74.6436 10.752 73.5252 12.096C72.4067 13.408 71.8475 15.216 71.8475 17.52C71.8475 20.176 72.4706 22.16 73.7169 23.472C74.9631 24.784 76.8804 25.44 79.4687 25.44C81.9292 25.44 83.9104 24.448 85.4123 22.464H76.9283V14.928H94.2318V25.584C92.7619 28.112 90.7328 30.288 88.1444 32.112C85.5561 33.904 82.2807 34.8 78.3184 34.8C74.8033 34.8 71.7357 34.08 69.1154 32.64C66.5271 31.168 64.5299 29.12 63.1239 26.496C61.7498 23.872 61.0628 20.88 61.0628 17.52C61.0628 14.16 61.7498 11.168 63.1239 8.544C64.5299 5.92 66.5271 3.888 69.1154 2.448C71.7037 0.976 74.7394 0.24 78.2225 0.24C82.6642 0.24 86.2751 1.312 89.0551 3.456C91.8671 5.6 93.5288 8.512 94.0401 12.192H82.824Z" fill="#1D2024"/>
<path d="M114.601 34.896C111.405 34.896 108.465 34.144 105.781 32.64C103.129 31.136 101.02 29.056 99.4541 26.4C97.8884 23.744 97.1055 20.752 97.1055 17.424C97.1055 14.096 97.8884 11.104 99.4541 8.448C101.02 5.792 103.129 3.728 105.781 2.256C108.465 0.752 111.405 0 114.601 0C117.796 0 120.72 0.752 123.372 2.256C126.024 3.728 128.118 5.792 129.651 8.448C131.217 11.104 132 14.096 132 17.424C132 20.752 131.217 23.744 129.651 26.4C128.118 29.056 126.008 31.136 123.324 32.64C120.672 34.144 117.764 34.896 114.601 34.896ZM114.601 24.96C116.71 24.96 118.339 24.288 119.49 22.944C120.64 21.568 121.215 19.728 121.215 17.424C121.215 15.088 120.64 13.248 119.49 11.904C118.339 10.528 116.71 9.84 114.601 9.84C112.46 9.84 110.814 10.528 109.664 11.904C108.513 13.248 107.938 15.088 107.938 17.424C107.938 19.728 108.513 21.568 109.664 22.944C110.814 24.288 112.46 24.96 114.601 24.96Z" fill="#1D2024"/>
</svg>
