<svg width="190" height="28" viewBox="0 0 190 28" fill="none" xmlns="http://www.w3.org/2000/svg">
<path d="M0 26.9629V0.251988H10.6671C13.4169 0.251988 15.3962 0.875962 16.6052 2.12391C17.8378 3.37186 18.4541 5.11178 18.4541 7.34369C18.4541 8.37565 18.3119 9.28761 18.0275 10.0796C17.743 10.8715 17.3282 11.5315 16.783 12.0595C16.2615 12.5635 15.6096 12.9115 14.8273 13.1034C15.3962 13.2474 15.9533 13.4874 16.4985 13.8234C17.0437 14.1354 17.5178 14.5674 17.9208 15.1194C18.3475 15.6713 18.6793 16.3193 18.9164 17.0633C19.1534 17.8073 19.272 18.6592 19.272 19.6192C19.272 21.3951 18.9638 22.823 18.3475 23.903C17.7549 24.9829 16.8541 25.7629 15.6451 26.2429C14.4362 26.7229 12.9428 26.9629 11.1649 26.9629H0ZM6.15138 21.3831H10.9872C11.5087 21.3831 11.9472 21.2751 12.3028 21.0591C12.682 20.8431 12.9665 20.5311 13.1561 20.1232C13.3458 19.6912 13.4406 19.1512 13.4406 18.5032C13.4406 17.9272 13.3339 17.4353 13.1206 17.0273C12.9309 16.6193 12.6583 16.3073 12.3028 16.0913C11.9472 15.8513 11.5087 15.7313 10.9872 15.7313H6.15138V21.3831ZM6.15138 11.0155H10.6671C11.2835 11.0155 11.7576 10.7755 12.0894 10.2956C12.445 9.79159 12.6228 9.16761 12.6228 8.42364C12.6228 7.43968 12.4213 6.76771 12.0183 6.40773C11.6153 6.02375 11.1531 5.83175 10.6316 5.83175H6.15138V11.0155Z" fill="#0582CA"/>
<path d="M23.6719 26.9629V0.251988H34.7657C35.8798 0.251988 36.8991 0.395983 37.8236 0.683971C38.7718 0.947959 39.5896 1.41594 40.277 2.08791C40.9882 2.73588 41.5334 3.62385 41.9127 4.7518C42.3157 5.87975 42.5171 7.30769 42.5171 9.03562C42.5171 10.2116 42.4105 11.2195 42.1971 12.0595C41.9838 12.8755 41.6993 13.5714 41.3438 14.1474C40.9882 14.6994 40.5734 15.1554 40.0993 15.5153C39.6489 15.8753 39.1748 16.1873 38.677 16.4513L43.4061 26.9629H37.148L33.2012 17.4593C32.9641 17.4593 32.6915 17.4593 32.3834 17.4593C32.0989 17.4353 31.8145 17.4233 31.53 17.4233C31.2455 17.4233 30.9492 17.4233 30.6411 17.4233C30.3566 17.4233 30.084 17.4233 29.8233 17.4233V26.9629H23.6719ZM29.8233 12.4915H33.6634C34.0901 12.4915 34.4694 12.4435 34.8013 12.3475C35.1331 12.2275 35.4176 12.0355 35.6546 11.7715C35.8917 11.4835 36.0695 11.1235 36.188 10.6915C36.3065 10.2596 36.3658 9.71959 36.3658 9.07162C36.3658 8.42364 36.3065 7.89567 36.188 7.48768C36.0695 7.0557 35.8917 6.73172 35.6546 6.51573C35.4176 6.27574 35.1331 6.10774 34.8013 6.01175C34.4694 5.89175 34.0901 5.83175 33.6634 5.83175H29.8233V12.4915Z" fill="#0582CA"/>
<path d="M45.532 26.9629L53.5679 0.251988H61.2482L69.2842 26.9629H62.9194L61.5683 22.1031H53.1768L51.8612 26.9629H45.532ZM54.5991 16.5233H60.146L57.3725 5.57976L54.5991 16.5233Z" fill="#0582CA"/>
<path d="M72.9627 26.9629V0.251988H77.834L87.9322 16.4153V0.251988H94.0836V26.9629H89.1767L79.0785 10.8355V26.9629H72.9627Z" fill="#0582CA"/>
<path d="M99.2363 26.9629V0.251988H110.65C112.523 0.251988 114.052 0.587974 115.237 1.25995C116.446 1.93192 117.406 2.86788 118.117 4.06783C118.828 5.26778 119.326 6.68372 119.611 8.31565C119.895 9.94758 120.037 11.7235 120.037 13.6434C120.037 16.7153 119.694 19.2352 119.006 21.2031C118.319 23.147 117.276 24.599 115.877 25.5589C114.502 26.4949 112.76 26.9629 110.65 26.9629H99.2363ZM105.388 21.3831H110.046C111.018 21.3831 111.776 21.1071 112.321 20.5551C112.89 20.0032 113.293 19.1512 113.53 17.9992C113.791 16.8473 113.921 15.3954 113.921 13.6434C113.921 11.9875 113.827 10.6436 113.637 9.6116C113.471 8.57964 113.222 7.79967 112.89 7.27169C112.558 6.71972 112.155 6.34773 111.681 6.15574C111.207 5.93975 110.662 5.83175 110.046 5.83175H105.388V21.3831Z" fill="#0582CA"/>
<path d="M124.644 26.9629V0.251988H130.796V26.9629H124.644Z" fill="#0582CA"/>
<path d="M136.165 26.9629V0.251988H141.037L151.135 16.4153V0.251988H157.286V26.9629H152.379L142.281 10.8355V26.9629H136.165Z" fill="#0582CA"/>
<path d="M169.799 27.1429C168.164 27.1429 166.824 26.8069 165.781 26.1349C164.738 25.4629 163.921 24.527 163.328 23.327C162.759 22.1031 162.356 20.6751 162.119 19.0432C161.882 17.3873 161.763 15.5873 161.763 13.6434C161.763 11.5555 161.894 9.67159 162.155 7.99166C162.439 6.31174 162.937 4.88379 163.648 3.70784C164.359 2.50789 165.367 1.59593 166.67 0.971957C167.998 0.323986 169.705 0 171.791 0C173.094 0 174.244 0.0599974 175.24 0.179992C176.259 0.275988 177.207 0.419982 178.084 0.611973C178.985 0.803965 179.898 1.01996 180.822 1.25995V6.08374C180.301 6.01175 179.637 5.93975 178.831 5.86775C178.025 5.79575 177.112 5.73576 176.093 5.68776C175.097 5.61576 174.043 5.57976 172.928 5.57976C171.506 5.57976 170.428 5.81975 169.693 6.29974C168.982 6.77971 168.507 7.60768 168.27 8.78363C168.033 9.95958 167.915 11.5795 167.915 13.6434C167.915 15.2514 167.974 16.5593 168.093 17.5673C168.235 18.5752 168.46 19.3672 168.768 19.9432C169.076 20.4951 169.479 20.8791 169.977 21.0951C170.499 21.3111 171.115 21.4191 171.826 21.4191C172.751 21.4191 173.592 21.3591 174.351 21.2391C175.133 21.1191 175.749 20.9991 176.2 20.8791V16.6313H172.04V11.6995C172.561 11.6275 173.165 11.5675 173.853 11.5195C174.564 11.4715 175.299 11.4355 176.057 11.4115C176.84 11.3635 177.551 11.3395 178.191 11.3395C179.021 11.3395 179.744 11.3515 180.36 11.3755C181 11.3755 181.581 11.3995 182.102 11.4475V26.9629H177.48L176.662 25.1629C176.022 25.5709 175.086 26.0029 173.853 26.4589C172.644 26.9149 171.293 27.1429 169.799 27.1429Z" fill="#0582CA"/>
<path d="M189.955 26.9148H184.411L184.411 24.6283C184.411 24.452 184.433 24.271 184.478 24.0852C184.518 23.8994 184.603 23.7303 184.732 23.5779C184.862 23.4207 185.059 23.2945 185.323 23.1992C185.582 23.1039 185.928 23.0563 186.361 23.0563C186.795 23.0563 187.146 23.1039 187.415 23.1992C187.679 23.2945 187.878 23.4183 188.012 23.5708C188.147 23.7184 188.239 23.8804 188.289 24.0566C188.334 24.2329 188.356 24.4044 188.356 24.5711C188.356 24.6569 188.351 24.7521 188.341 24.8569C188.331 24.9617 188.319 25.0665 188.304 25.1713C188.289 25.2761 188.274 25.3738 188.259 25.4643C188.239 25.55 188.227 25.6215 188.222 25.6787H189.955V26.9148ZM187.198 25.6787V24.764C187.198 24.6545 187.168 24.5664 187.108 24.4997C187.049 24.4282 186.959 24.3758 186.839 24.3425C186.72 24.3091 186.563 24.2924 186.369 24.2924C186.184 24.2924 186.035 24.3115 185.92 24.3496C185.801 24.383 185.714 24.433 185.659 24.4997C185.599 24.5664 185.569 24.6521 185.569 24.7569V25.6787H187.198Z" fill="#403D39"/>
<path d="M190 17.2618C190 17.6286 189.963 17.9526 189.888 18.2336C189.813 18.5099 189.676 18.7433 189.477 18.9339C189.278 19.1196 188.994 19.2602 188.625 19.3554C188.257 19.446 187.776 19.4912 187.183 19.4912C186.595 19.4912 186.117 19.4436 185.748 19.3483C185.375 19.253 185.088 19.1125 184.889 18.9267C184.69 18.7409 184.553 18.5099 184.478 18.2336C184.398 17.9526 184.359 17.6286 184.359 17.2618C184.359 16.8903 184.398 16.5663 184.478 16.29C184.553 16.009 184.69 15.7756 184.889 15.5898C185.088 15.404 185.375 15.2659 185.748 15.1754C186.117 15.0801 186.595 15.0325 187.183 15.0325C187.776 15.0325 188.257 15.0801 188.625 15.1754C188.994 15.2659 189.278 15.4064 189.477 15.5969C189.676 15.7827 189.813 16.0138 189.888 16.29C189.963 16.5663 190 16.8903 190 17.2618ZM188.842 17.2618C188.842 17.0665 188.819 16.9046 188.775 16.7759C188.725 16.6473 188.643 16.5473 188.528 16.4758C188.408 16.3996 188.242 16.3472 188.027 16.3186C187.808 16.2853 187.527 16.2686 187.183 16.2686C186.829 16.2686 186.543 16.2853 186.324 16.3186C186.105 16.3472 185.938 16.3996 185.823 16.4758C185.704 16.5473 185.624 16.6473 185.584 16.7759C185.539 16.9046 185.517 17.0665 185.517 17.2618C185.517 17.4524 185.539 17.612 185.584 17.7406C185.624 17.8692 185.704 17.9716 185.823 18.0478C185.938 18.1193 186.105 18.1717 186.324 18.205C186.543 18.2384 186.829 18.255 187.183 18.255C187.527 18.255 187.808 18.2408 188.027 18.2122C188.242 18.1788 188.408 18.1264 188.528 18.055C188.643 17.9788 188.725 17.8763 188.775 17.7477C188.819 17.6191 188.842 17.4571 188.842 17.2618Z" fill="#403D39"/>
<path d="M190 9.61548C190 9.76315 189.995 9.9132 189.985 10.0656C189.975 10.2133 189.963 10.361 189.948 10.5087C189.928 10.6516 189.905 10.7921 189.88 10.9302C189.856 11.0636 189.828 11.1875 189.798 11.3018H188.775C188.79 11.1494 188.802 10.9803 188.812 10.7945C188.822 10.6087 188.829 10.4205 188.834 10.23C188.839 10.0347 188.842 9.85128 188.842 9.67979C188.842 9.51306 188.829 9.37253 188.804 9.2582C188.775 9.13911 188.727 9.0486 188.662 8.98668C188.593 8.92475 188.498 8.89379 188.379 8.89379H188.237C188.102 8.89379 188 8.93666 187.93 9.02241C187.861 9.10339 187.826 9.20819 187.826 9.3368V9.75124C187.826 10.2848 187.704 10.6897 187.46 10.966C187.215 11.2423 186.804 11.3804 186.227 11.3804H185.965C185.422 11.3804 185.021 11.228 184.762 10.9231C184.498 10.6182 184.366 10.18 184.366 9.60833C184.366 9.39873 184.379 9.19628 184.403 9.00097C184.423 8.80566 184.448 8.61988 184.478 8.44362C184.508 8.26737 184.54 8.11255 184.575 7.97917H185.592C185.577 8.1983 185.562 8.44362 185.547 8.71515C185.532 8.98668 185.524 9.23439 185.524 9.45828C185.524 9.60595 185.539 9.73695 185.569 9.85128C185.594 9.9656 185.644 10.0537 185.719 10.1157C185.788 10.1776 185.893 10.2085 186.032 10.2085H186.137C186.296 10.2085 186.413 10.1657 186.488 10.0799C186.563 9.98942 186.6 9.85366 186.6 9.67264V9.1796C186.6 8.85091 186.665 8.57939 186.795 8.36502C186.919 8.15066 187.093 7.99108 187.318 7.88628C187.537 7.77672 187.786 7.72193 188.065 7.72193H188.341C188.799 7.72193 189.148 7.80053 189.387 7.95773C189.626 8.11017 189.788 8.3293 189.873 8.61511C189.958 8.89617 190 9.22962 190 9.61548Z" fill="#403D39"/>
<path d="M189.955 2.85053H185.569L185.569 4.24389H184.411L184.411 0.228149L185.569 0.228149L185.569 1.62151L189.955 1.62151L189.955 2.85053Z" fill="#403D39"/>
</svg>
