<svg width="33" height="32" viewBox="0 0 33 32" fill="none" xmlns="http://www.w3.org/2000/svg">
<g opacity="0.5">
<path opacity="0.6" d="M11.7627 15.6C12.7917 17.7251 14.51 19.439 16.6377 20.4625C16.7946 20.5369 16.9682 20.569 17.1414 20.5559C17.3145 20.5427 17.4813 20.4847 17.6252 20.3875L20.7502 18.3C20.8883 18.2064 21.0478 18.1493 21.2139 18.134C21.3801 18.1187 21.5473 18.1457 21.7002 18.2125L27.5502 20.725C27.7501 20.8083 27.9172 20.9549 28.0256 21.1424C28.134 21.3298 28.1778 21.5477 28.1502 21.7625C27.9648 23.2097 27.2584 24.5397 26.1632 25.5038C25.0681 26.4678 23.6592 26.9997 22.2002 27C17.6915 27 13.3675 25.209 10.1794 22.0209C6.99126 18.8327 5.2002 14.5087 5.2002 10C5.20052 8.54104 5.73246 7.13214 6.69648 6.03699C7.66049 4.94183 8.99052 4.23546 10.4377 4.05004C10.6525 4.02245 10.8704 4.06623 11.0579 4.17465C11.2453 4.28307 11.392 4.4501 11.4752 4.65004L13.9877 10.5125C14.053 10.663 14.0804 10.8272 14.0673 10.9907C14.0542 11.1541 14.0011 11.3119 13.9127 11.45L11.8252 14.625C11.7323 14.7686 11.6777 14.9337 11.6668 15.1044C11.6558 15.2751 11.6889 15.4457 11.7627 15.6Z" fill="#0582CA"/>
<path d="M11.7627 15.6C12.7917 17.7251 14.51 19.439 16.6377 20.4625C16.7946 20.5369 16.9682 20.569 17.1414 20.5559C17.3145 20.5427 17.4813 20.4847 17.6252 20.3875L20.7502 18.3C20.8883 18.2064 21.0478 18.1493 21.2139 18.134C21.3801 18.1187 21.5473 18.1457 21.7002 18.2125L27.5502 20.725C27.7501 20.8083 27.9172 20.9549 28.0256 21.1424C28.134 21.3298 28.1778 21.5477 28.1502 21.7625C27.9648 23.2097 27.2584 24.5397 26.1632 25.5038C25.0681 26.4678 23.6592 26.9997 22.2002 27C17.6915 27 13.3675 25.209 10.1794 22.0209C6.99126 18.8327 5.2002 14.5087 5.2002 10C5.20052 8.54104 5.73246 7.13214 6.69648 6.03699C7.66049 4.94183 8.99052 4.23546 10.4377 4.05004C10.6525 4.02245 10.8704 4.06623 11.0579 4.17465C11.2453 4.28307 11.392 4.4501 11.4752 4.65004L13.9877 10.5125C14.053 10.663 14.0804 10.8272 14.0673 10.9907C14.0542 11.1541 14.0011 11.3119 13.9127 11.45L11.8252 14.625C11.7323 14.7686 11.6777 14.9337 11.6668 15.1044C11.6558 15.2751 11.6889 15.4457 11.7627 15.6V15.6Z" stroke="#403D39" stroke-width="1.5" stroke-linecap="round" stroke-linejoin="round"/>
</g>
</svg>
