<svg width="32" height="32" viewBox="0 0 32 32" fill="none" xmlns="http://www.w3.org/2000/svg">
<path d="M27.2 11.3333H19.7333C18.9907 11.3333 18.2786 11.6283 17.7535 12.1534C17.2283 12.6785 16.9333 13.3907 16.9333 14.1333V27.2C16.9333 27.9426 17.2283 28.6548 17.7535 29.1799C18.2786 29.705 18.9907 30 19.7333 30H27.2C27.9426 30 28.6548 29.705 29.1799 29.1799C29.705 28.6548 30 27.9426 30 27.2V14.1333C30 13.3907 29.705 12.6785 29.1799 12.1534C28.6548 11.6283 27.9426 11.3333 27.2 11.3333Z" fill="#0582CA"/>
<path d="M12.2667 2H4.8C4.05739 2 3.3452 2.295 2.8201 2.8201C2.295 3.3452 2 4.05739 2 4.8V17.8667C2 18.6093 2.295 19.3215 2.8201 19.8466C3.3452 20.3717 4.05739 20.6667 4.8 20.6667H12.2667C13.0093 20.6667 13.7215 20.3717 14.2466 19.8466C14.7717 19.3215 15.0667 18.6093 15.0667 17.8667V4.8C15.0667 4.05739 14.7717 3.3452 14.2466 2.8201C13.7215 2.295 13.0093 2 12.2667 2Z" fill="#0582CA"/>
<path d="M12.2667 2H4.8C4.05739 2 3.3452 2.295 2.8201 2.8201C2.295 3.3452 2 4.05739 2 4.8V17.8667C2 18.6093 2.295 19.3215 2.8201 19.8466C3.3452 20.3717 4.05739 20.6667 4.8 20.6667H12.2667C13.0093 20.6667 13.7215 20.3717 14.2466 19.8466C14.7717 19.3215 15.0667 18.6093 15.0667 17.8667V4.8C15.0667 4.05739 14.7717 3.3452 14.2466 2.8201C13.7215 2.295 13.0093 2 12.2667 2V2ZM13.2 17.8667C13.2 18.1142 13.1017 18.3516 12.9266 18.5266C12.7516 18.7017 12.5142 18.8 12.2667 18.8H4.8C4.55246 18.8 4.31507 18.7017 4.14003 18.5266C3.965 18.3516 3.86667 18.1142 3.86667 17.8667V4.8C3.86667 4.55246 3.965 4.31507 4.14003 4.14003C4.31507 3.965 4.55246 3.86667 4.8 3.86667H12.2667C12.5142 3.86667 12.7516 3.965 12.9266 4.14003C13.1017 4.31507 13.2 4.55246 13.2 4.8V17.8667Z" fill="#F2F2F2"/>
<path d="M12.2667 22.5333H4.8C4.05739 22.5333 3.3452 22.8283 2.8201 23.3534C2.295 23.8785 2 24.5907 2 25.3333V27.2C2 27.9426 2.295 28.6548 2.8201 29.1799C3.3452 29.705 4.05739 30 4.8 30H12.2667C13.0093 30 13.7215 29.705 14.2466 29.1799C14.7717 28.6548 15.0667 27.9426 15.0667 27.2V25.3333C15.0667 24.5907 14.7717 23.8785 14.2466 23.3534C13.7215 22.8283 13.0093 22.5333 12.2667 22.5333ZM13.2 27.2C13.2 27.4475 13.1017 27.6849 12.9266 27.86C12.7516 28.035 12.5142 28.1333 12.2667 28.1333H4.8C4.55246 28.1333 4.31507 28.035 4.14003 27.86C3.965 27.6849 3.86667 27.4475 3.86667 27.2V25.3333C3.86667 25.0858 3.965 24.8484 4.14003 24.6734C4.31507 24.4983 4.55246 24.4 4.8 24.4H12.2667C12.5142 24.4 12.7516 24.4983 12.9266 24.6734C13.1017 24.8484 13.2 25.0858 13.2 25.3333V27.2Z" fill="#F2F2F2"/>
<path d="M27.2 11.3333H19.7333C18.9907 11.3333 18.2785 11.6283 17.7534 12.1534C17.2283 12.6785 16.9333 13.3907 16.9333 14.1333V27.2C16.9333 27.9426 17.2283 28.6548 17.7534 29.1799C18.2785 29.705 18.9907 30 19.7333 30H27.2C27.9426 30 28.6548 29.705 29.1799 29.1799C29.705 28.6548 30 27.9426 30 27.2V14.1333C30 13.3907 29.705 12.6785 29.1799 12.1534C28.6548 11.6283 27.9426 11.3333 27.2 11.3333V11.3333ZM28.1333 27.2C28.1333 27.4475 28.035 27.6849 27.86 27.86C27.6849 28.035 27.4475 28.1333 27.2 28.1333H19.7333C19.4858 28.1333 19.2484 28.035 19.0734 27.86C18.8983 27.6849 18.8 27.4475 18.8 27.2V14.1333C18.8 13.8858 18.8983 13.6484 19.0734 13.4734C19.2484 13.2983 19.4858 13.2 19.7333 13.2H27.2C27.4475 13.2 27.6849 13.2983 27.86 13.4734C28.035 13.6484 28.1333 13.8858 28.1333 14.1333V27.2Z" fill="#F2F2F2"/>
<path d="M27.2 2H19.7333C18.9907 2 18.2785 2.295 17.7534 2.8201C17.2283 3.3452 16.9333 4.05739 16.9333 4.8V6.66667C16.9333 7.40927 17.2283 8.12146 17.7534 8.64657C18.2785 9.17167 18.9907 9.46667 19.7333 9.46667H27.2C27.9426 9.46667 28.6548 9.17167 29.1799 8.64657C29.705 8.12146 30 7.40927 30 6.66667V4.8C30 4.05739 29.705 3.3452 29.1799 2.8201C28.6548 2.295 27.9426 2 27.2 2V2ZM28.1333 6.66667C28.1333 6.9142 28.035 7.1516 27.86 7.32663C27.6849 7.50167 27.4475 7.6 27.2 7.6H19.7333C19.4858 7.6 19.2484 7.50167 19.0734 7.32663C18.8983 7.1516 18.8 6.9142 18.8 6.66667V4.8C18.8 4.55246 18.8983 4.31507 19.0734 4.14003C19.2484 3.965 19.4858 3.86667 19.7333 3.86667H27.2C27.4475 3.86667 27.6849 3.965 27.86 4.14003C28.035 4.31507 28.1333 4.55246 28.1333 4.8V6.66667Z" fill="#F2F2F2"/>
</svg>
