<svg width="24" height="25" viewBox="0 0 24 25" fill="none" xmlns="http://www.w3.org/2000/svg">
<g clip-path="url(#clip0_448_2674)">
<path opacity="0.6" d="M19.5 8.75H4.5C4.08579 8.75 3.75 9.08579 3.75 9.5V20C3.75 20.4142 4.08579 20.75 4.5 20.75H19.5C19.9142 20.75 20.25 20.4142 20.25 20V9.5C20.25 9.08579 19.9142 8.75 19.5 8.75Z" fill="#0582CA"/>
<path d="M3.75 11.75H20.25" stroke="#403D39" stroke-width="1.5" stroke-linecap="round" stroke-linejoin="round"/>
<path d="M3.75 14.75H20.25" stroke="#403D39" stroke-width="1.5" stroke-linecap="round" stroke-linejoin="round"/>
<path d="M3.75 17.75H20.25" stroke="#403D39" stroke-width="1.5" stroke-linecap="round" stroke-linejoin="round"/>
<path d="M19.5 8.75H4.5C4.08579 8.75 3.75 9.08579 3.75 9.5V20C3.75 20.4142 4.08579 20.75 4.5 20.75H19.5C19.9142 20.75 20.25 20.4142 20.25 20V9.5C20.25 9.08579 19.9142 8.75 19.5 8.75Z" stroke="#403D39" stroke-width="1.5" stroke-linecap="round" stroke-linejoin="round"/>
<path d="M8.25 8.75V5.75C8.25 4.75544 8.64509 3.80161 9.34835 3.09835C10.0516 2.39509 11.0054 2 12 2C12.9946 2 13.9484 2.39509 14.6517 3.09835C15.3549 3.80161 15.75 4.75544 15.75 5.75V8.75" stroke="#403D39" stroke-width="1.5" stroke-linecap="round" stroke-linejoin="round"/>
</g>
<defs>
<clipPath id="clip0_448_2674">
<rect width="24" height="24" fill="white" transform="translate(0 0.5)"/>
</clipPath>
</defs>
</svg>
