<svg width="24" height="25" viewBox="0 0 24 25" fill="none" xmlns="http://www.w3.org/2000/svg">
<g clip-path="url(#clip0_448_2689)">
<path opacity="0.6" d="M12.688 3.20939L14.8659 8.39939C14.9186 8.52534 15.0047 8.63452 15.1149 8.71514C15.2251 8.79576 15.3552 8.84477 15.4912 8.85689L21.0655 9.33876C21.2135 9.35065 21.3545 9.40615 21.4709 9.49822C21.5872 9.5903 21.6737 9.71483 21.7192 9.85604C21.7648 9.99726 21.7674 10.1488 21.7268 10.2915C21.6863 10.4343 21.6042 10.5617 21.4912 10.6578L17.2621 14.3469C17.1593 14.4372 17.0829 14.5536 17.041 14.6839C16.999 14.8141 16.9932 14.9533 17.024 15.0866L18.2915 20.5747C18.325 20.718 18.3156 20.8681 18.2644 21.0061C18.2132 21.1441 18.1226 21.264 18.0037 21.3509C17.8849 21.4377 17.7431 21.4877 17.596 21.4946C17.449 21.5014 17.3032 21.4648 17.1768 21.3894L12.3862 18.4831C12.2698 18.4124 12.1362 18.3749 11.9999 18.3749C11.8637 18.3749 11.7301 18.4124 11.6137 18.4831L6.82305 21.3894C6.69664 21.4648 6.55084 21.5014 6.4038 21.4946C6.25675 21.4877 6.11498 21.4377 5.99613 21.3509C5.87729 21.264 5.78663 21.1441 5.73546 21.0061C5.68429 20.8681 5.67486 20.718 5.70836 20.5747L6.97586 15.0866C7.00667 14.9533 7.0008 14.8141 6.95887 14.6839C6.91694 14.5536 6.84053 14.4372 6.73773 14.3469L2.50867 10.6578C2.39561 10.5617 2.31359 10.4343 2.273 10.2915C2.2324 10.1488 2.23506 9.99726 2.28062 9.85604C2.32619 9.71483 2.41262 9.5903 2.52898 9.49822C2.64533 9.40615 2.78639 9.35065 2.9343 9.33876L8.50867 8.85689C8.64467 8.84477 8.77479 8.79576 8.88498 8.71514C8.99518 8.63452 9.08127 8.52534 9.13398 8.39939L11.3118 3.20939C11.37 3.07521 11.4661 2.96096 11.5884 2.8807C11.7106 2.80045 11.8537 2.75769 11.9999 2.75769C12.1462 2.75769 12.2892 2.80045 12.4115 2.8807C12.5337 2.96096 12.6299 3.07521 12.688 3.20939Z" fill="#0582CA"/>
<path d="M12.688 3.20939L14.8659 8.39939C14.9186 8.52534 15.0047 8.63452 15.1149 8.71514C15.2251 8.79576 15.3552 8.84477 15.4912 8.85689L21.0655 9.33876C21.2135 9.35065 21.3545 9.40615 21.4709 9.49822C21.5872 9.5903 21.6737 9.71483 21.7192 9.85604C21.7648 9.99726 21.7674 10.1488 21.7268 10.2915C21.6863 10.4343 21.6042 10.5617 21.4912 10.6578L17.2621 14.3469C17.1593 14.4372 17.0829 14.5536 17.041 14.6839C16.999 14.8141 16.9932 14.9533 17.024 15.0866L18.2915 20.5747C18.325 20.718 18.3156 20.8681 18.2644 21.0061C18.2132 21.1441 18.1226 21.264 18.0037 21.3509C17.8849 21.4377 17.7431 21.4877 17.596 21.4946C17.449 21.5014 17.3032 21.4648 17.1768 21.3894L12.3862 18.4831C12.2698 18.4124 12.1362 18.3749 11.9999 18.3749C11.8637 18.3749 11.7301 18.4124 11.6137 18.4831L6.82305 21.3894C6.69664 21.4648 6.55084 21.5014 6.4038 21.4946C6.25675 21.4877 6.11498 21.4377 5.99613 21.3509C5.87729 21.264 5.78663 21.1441 5.73546 21.0061C5.68429 20.8681 5.67486 20.718 5.70836 20.5747L6.97586 15.0866C7.00667 14.9533 7.0008 14.8141 6.95887 14.6839C6.91694 14.5536 6.84053 14.4372 6.73773 14.3469L2.50867 10.6578C2.39561 10.5617 2.31359 10.4343 2.273 10.2915C2.2324 10.1488 2.23506 9.99726 2.28062 9.85604C2.32619 9.71483 2.41262 9.5903 2.52898 9.49822C2.64533 9.40615 2.78639 9.35065 2.9343 9.33876L8.50867 8.85689C8.64467 8.84477 8.77479 8.79576 8.88498 8.71514C8.99518 8.63452 9.08127 8.52534 9.13398 8.39939L11.3118 3.20939C11.37 3.07521 11.4661 2.96096 11.5884 2.8807C11.7106 2.80045 11.8537 2.75769 11.9999 2.75769C12.1462 2.75769 12.2892 2.80045 12.4115 2.8807C12.5337 2.96096 12.6299 3.07521 12.688 3.20939Z" stroke="#403D39" stroke-width="1.5" stroke-linecap="round" stroke-linejoin="round"/>
</g>
<defs>
<clipPath id="clip0_448_2689">
<rect width="24" height="24" fill="white" transform="translate(0 0.5)"/>
</clipPath>
</defs>
</svg>
