<svg width="238" height="154" viewBox="0 0 238 154" fill="none" xmlns="http://www.w3.org/2000/svg">
<path opacity="0.34" d="M120.296 153.113C155.254 153.113 183.593 149.181 183.593 144.331C183.593 139.481 155.254 135.549 120.296 135.549C85.3387 135.549 57 139.481 57 144.331C57 149.181 85.3387 153.113 120.296 153.113Z" fill="#0582CA"/>
<path d="M34.6244 61.9739C40.4167 56.2227 40.4167 46.8982 34.6243 41.147C28.832 35.3958 19.4407 35.3958 13.6484 41.147C7.85603 46.8982 7.85603 56.2227 13.6484 61.9739C19.4407 67.7251 28.832 67.7251 34.6244 61.9739Z" fill="#E6E6E6"/>
<path d="M12.408 34.7589C14.1289 32.4854 13.6678 29.2572 11.378 27.5485C9.08822 25.8398 5.83691 26.2977 4.11599 28.5712C2.39508 30.8447 2.85623 34.0729 5.14601 35.7816C7.43579 37.4903 10.6871 37.0324 12.408 34.7589Z" fill="#E6E6E6"/>
<path d="M29.0023 24.4028C31.634 22.4378 32.1631 18.7265 30.184 16.1134C28.2049 13.5003 24.4671 12.975 21.8353 14.94C19.2035 16.9051 18.6744 20.6164 20.6535 23.2294C22.6326 25.8425 26.3705 26.3678 29.0023 24.4028Z" fill="#E6E6E6"/>
<path d="M226.775 77.9498C232.567 72.1986 232.567 62.8741 226.775 57.1229C220.983 51.3717 211.591 51.3717 205.799 57.1229C200.007 62.8741 200.007 72.1986 205.799 77.9498C211.591 83.701 220.983 83.701 226.775 77.9498Z" fill="#E6E6E6"/>
<path d="M230.849 92.8313C231.845 90.165 230.476 87.2015 227.791 86.212C225.106 85.2226 222.121 86.5819 221.124 89.2482C220.128 91.9145 221.497 94.878 224.182 95.8675C226.868 96.8569 229.852 95.4975 230.849 92.8313Z" fill="#E6E6E6"/>
<path d="M209.735 102.551C212.371 100.592 212.908 96.8811 210.935 94.2634C208.961 91.6458 205.224 91.1122 202.588 93.0717C199.952 95.0312 199.414 98.7417 201.388 101.359C203.361 103.977 207.098 104.511 209.735 102.551Z" fill="#E6E6E6"/>
<path d="M54.3802 44.9027C53.0621 39.325 53.0744 27.5459 51.7439 21.9682C73.3642 19.057 95.12 17.1733 116.925 16.2927C117.048 14.3111 117.171 12.3174 117.307 10.3358C137.437 11.0697 157.566 11.8159 177.684 12.5498C179.322 12.6109 181.281 12.88 181.958 14.3601C182.316 15.1551 182.18 16.0725 182.069 16.9409C180.8 27.13 182.291 37.4169 181.946 47.5203" fill="#0582CA"/>
<path d="M174.875 63.5438L63.6073 65.7455L62.1782 25.0872L174.049 22.2739L174.875 63.5438Z" fill="#E6E9ED"/>
<path d="M174.887 64.559L63.6195 66.7607C63.0652 66.773 62.597 66.3326 62.5724 65.7822L61.1434 25.1239C61.131 24.8549 61.2296 24.5858 61.4267 24.39C61.6115 24.1943 61.8702 24.0843 62.1412 24.072L174.012 21.2587C174.271 21.2343 174.554 21.3566 174.752 21.5401C174.949 21.7235 175.06 21.9804 175.072 22.2495L175.897 63.5316C175.91 64.082 175.454 64.5468 174.887 64.559ZM64.5928 64.7058L173.828 62.553L173.039 23.3137L63.2376 26.078L64.5928 64.7058Z" fill="#403D39"/>
<path d="M178.324 70.0756L67.0565 72.2773L65.6274 31.6191L177.499 28.8058L178.324 70.0756Z" fill="white"/>
<path d="M178.349 71.0908L67.0812 73.2926C66.5268 73.3048 66.0587 72.8644 66.0341 72.314L64.605 31.6558C64.5927 31.3867 64.6913 31.1176 64.8884 30.9219C65.0732 30.7261 65.3319 30.6161 65.6029 30.6038L177.474 27.7905C177.745 27.7905 178.004 27.8884 178.201 28.0719C178.398 28.2553 178.509 28.5122 178.521 28.7813L179.347 70.0634C179.359 70.6138 178.915 71.0786 178.349 71.0908ZM68.0421 71.2376L177.277 69.0848L176.489 29.8455L66.687 32.6098L68.0421 71.2376Z" fill="#403D39"/>
<path d="M183.35 52.4836C183.585 44.8999 182.845 32.3162 182.969 24.7325C182.993 22.91 183.079 21.0997 183.227 19.2894C183.363 17.7605 183.856 15.9746 183.461 14.4579C182.784 11.8281 180.012 11.2776 177.659 11.1676C174.222 10.9963 170.773 10.9107 167.335 10.7884C153.452 10.2746 139.568 9.7609 125.684 9.2594C124.058 9.19825 122.419 9.07593 120.793 9.07593C119.143 9.07593 117.652 9.68751 116.654 11.0208C115.521 12.5375 115.656 14.519 115.533 16.3171C115.989 15.8401 116.445 15.3753 116.9 14.8982C104.088 15.4242 91.301 16.2804 78.5382 17.4914C72.2184 18.0907 65.8987 18.7879 59.6035 19.5585C57.2752 19.8398 54.3062 19.7175 52.4707 21.43C50.8445 22.9589 50.7706 24.8426 50.98 26.922C51.5467 32.463 51.7561 38.1018 53.0004 43.5449C53.0989 43.973 53.5548 44.4256 53.9983 44.499C61.3405 45.6733 68.6828 46.8597 76.0251 48.034C87.7161 49.9054 99.4194 51.7891 111.11 53.6606C113.734 54.0765 116.358 54.578 118.995 54.9204C121.188 55.2018 123.442 55.1895 125.647 55.2996C137.338 55.899 149.017 56.5106 160.708 57.1099C162.827 57.22 164.946 57.3301 167.064 57.4402C168.013 57.4891 169.072 57.6848 170.021 57.5992C171.364 57.4769 172.694 55.9479 173.705 55.1773C176.033 53.4037 178.361 51.6301 180.677 49.8443C181.17 49.4651 181.663 49.0981 182.156 48.719C183.572 47.6426 182.131 45.2574 180.69 46.346C179.113 47.5447 177.536 48.7557 175.971 49.9544C173.939 51.5078 171.573 52.9389 169.738 54.7125C169.38 55.0672 169.257 54.8348 169.688 54.9082C170.957 55.1406 169.775 54.7614 169.861 54.7981C169.59 54.6636 169.011 54.7492 168.715 54.737C167.015 54.6513 165.327 54.5657 163.627 54.4801C152.023 53.8807 140.406 53.2814 128.801 52.682C125.696 52.523 122.604 52.3762 119.5 52.205C119.216 52.1928 120.091 52.2906 119.561 52.205C119.229 52.1438 118.896 52.0949 118.551 52.046C117.134 51.8136 115.705 51.5934 114.289 51.361C103.14 49.5752 92.0032 47.7893 80.8542 46.0035C75.3106 45.1106 69.7792 44.2299 64.2356 43.337C62.2645 43.019 60.3057 42.701 58.3346 42.3952C57.2875 42.2239 56.1295 41.8814 55.0577 41.8692C54.9222 41.8692 54.7621 41.8203 54.6265 41.7958C54.9592 42.1138 55.2918 42.4319 55.6244 42.7499C55.0084 40.0222 54.7128 37.2456 54.4417 34.469C54.1461 31.5334 53.6533 28.4999 53.5917 25.5521C53.5548 23.8274 54.5157 22.9956 56.1664 22.7632C57.9897 22.5064 59.8376 22.2984 61.6608 22.0783C65.332 21.6379 69.0031 21.2343 72.6743 20.8428C87.3711 19.3139 102.117 18.262 116.888 17.6626C117.689 17.6259 118.219 17.0143 118.256 16.2437C118.342 14.9227 118.083 12.9167 119.389 12.1216C119.931 11.7914 120.461 11.8281 121.052 11.8403C122.518 11.8648 123.984 11.9504 125.45 11.9993C131.425 12.2195 137.412 12.4397 143.387 12.6598C154.597 13.0757 165.808 13.4671 177.031 13.8952C177.647 13.9197 178.275 13.9197 178.879 14.0298C179.729 14.1888 180.542 14.3845 180.714 15.363C180.837 16.0725 180.591 16.9165 180.517 17.6137C180.295 19.6441 180.16 21.6868 180.111 23.7418C179.901 31.6679 180.714 44.5819 180.468 52.508C180.492 54.3305 183.301 54.2694 183.35 52.4836Z" fill="#403D39"/>
<path d="M176.673 48.4622C180.468 48.3888 183.56 51.4345 183.511 55.2019C183.314 68.7546 184.361 84.1421 183.634 96.9243C183.424 100.679 183.043 104.802 180.357 107.444C177.634 110.135 173.409 110.453 169.578 110.599C143.522 111.664 117.479 112.728 91.4242 113.792C83.4167 114.122 75.3722 114.44 67.3893 113.633C65.5784 113.449 63.6566 113.144 62.3261 111.92C60.8355 110.538 60.4905 108.361 60.2318 106.355C58.1622 90.2825 56.0679 60.8896 53.9983 44.8171L59.3818 38.6401L135.158 35.3253L137.88 49.2328L176.673 48.4622Z" fill="#0582CA"/>
<path d="M177.437 58.59L165.143 58.8346C163.701 58.8591 162.494 57.7215 162.469 56.2782L162.457 55.5565C162.432 54.1254 163.578 52.9267 165.032 52.9022L177.326 52.6576C178.768 52.6332 179.975 53.7707 180 55.214L180.012 55.9357C180.024 57.3791 178.879 58.5655 177.437 58.59Z" fill="#0473B3"/>
<path d="M121.73 102.722C101.021 103.86 80.2136 106.612 59.7637 102.465C59.9238 103.823 60.0717 105.132 60.2318 106.343C60.4905 108.349 60.8354 110.526 62.3261 111.908C63.6566 113.143 65.5784 113.437 67.3893 113.621C75.3599 114.44 83.4043 114.11 91.4242 113.78C117.479 112.715 143.522 111.651 169.578 110.587C173.409 110.428 177.634 110.11 180.357 107.431C181.232 106.575 181.835 105.548 182.291 104.447C162.1 103.994 141.958 101.621 121.73 102.722Z" fill="#0473B3"/>
<path d="M176.784 49.8443C178.484 49.8688 180.061 50.566 181.096 51.936C182.291 53.5383 182.106 55.3975 182.094 57.2812C182.069 61.4889 182.143 65.6966 182.229 69.9166C182.414 78.3442 182.698 86.7841 182.316 95.2118C182.168 98.6122 182.217 102.722 180.111 105.609C177.844 108.716 173.618 109.034 170.083 109.193C160.843 109.633 151.591 109.951 142.34 110.33C123.528 111.101 104.717 111.994 85.9051 112.618C81.3224 112.764 76.7396 112.838 72.1692 112.605C70.001 112.495 67.685 112.471 65.566 111.957C63.3609 111.431 62.3877 110.098 61.9195 107.982C61.2913 105.156 61.1434 102.147 60.8231 99.2727C60.4782 96.0803 60.1579 92.8878 59.8499 89.6831C58.4086 74.7114 57.3245 59.7031 55.415 44.7804C55.2795 45.1107 55.1563 45.4409 55.0208 45.7712C56.8194 43.7162 58.6057 41.6491 60.4043 39.5941C60.0717 39.7409 59.7514 39.8755 59.4187 40.0223C69.8285 39.5697 80.2383 39.1049 90.6604 38.6523C103.411 38.0896 116.161 37.5392 128.912 36.9765C131.597 36.8542 134.061 37.4903 134.776 40.5482C135.466 43.545 135.958 46.6029 136.55 49.6119C136.66 50.199 137.35 50.6149 137.917 50.6027C149.251 50.3825 160.572 50.1501 171.906 49.93C173.532 49.9055 175.158 49.881 176.784 49.8443C178.583 49.8076 178.534 47.031 176.723 47.0677C165.389 47.2879 154.068 47.5203 142.734 47.7405C141.108 47.7772 139.482 47.8016 137.855 47.8383C138.311 48.1686 138.767 48.4988 139.223 48.8291C138.607 45.6733 138.225 42.3585 137.326 39.2639C136.279 35.6066 132.878 34.0165 129.318 34.1755C123.208 34.4446 117.098 34.7137 110.999 34.9828C94.5409 35.7045 78.0701 36.4261 61.6116 37.1478C60.1456 37.209 58.9383 37.0255 57.9035 38.212C56.5483 39.7776 55.1809 41.331 53.8258 42.8967C53.4685 43.3126 52.9018 43.7896 52.7047 44.3156C52.2982 45.3675 52.9018 47.3246 53.025 48.4377C54.6635 62.5164 55.7476 76.6563 57.115 90.7717C57.4353 94.0742 57.768 97.3768 58.1375 100.679C58.4702 103.652 58.5317 106.93 59.4557 109.78C60.6507 113.51 63.7551 114.66 67.4016 115.039C72.1815 115.541 77.0106 115.602 81.8151 115.516C101.304 115.174 120.806 114 140.282 113.205C150.052 112.801 159.821 112.434 169.59 112.006C173.076 111.859 176.895 111.627 179.876 109.621C182.845 107.615 184.164 104.324 184.644 100.912C185.79 92.8389 185.309 84.4112 185.149 76.2893C185.063 71.8125 184.94 67.3357 184.89 62.8589C184.866 60.7795 184.853 58.7001 184.878 56.6207C184.89 54.8716 184.903 53.2814 184.139 51.6669C182.771 48.7679 179.876 47.1167 176.71 47.0677C174.924 47.031 174.973 49.8199 176.784 49.8443Z" fill="#403D39"/>
<path d="M63.2377 74.3688C63.4841 78.4909 63.9276 82.6008 64.5559 86.6739C64.716 87.7259 65.4429 88.7411 66.6378 88.6677C67.6234 88.6065 68.8183 87.7259 68.6459 86.6005C68.0176 82.5151 67.5741 78.4175 67.3277 74.2954C67.2661 73.2313 66.3791 72.2283 65.2457 72.3016C64.174 72.3628 63.1638 73.2313 63.2377 74.3688Z" fill="white"/>
<path d="M65.1226 93.4259C65.1226 93.5238 65.1226 93.6339 65.1226 93.7317C65.1226 94.013 65.1842 94.2699 65.3197 94.5145C65.4059 94.7592 65.5537 94.9793 65.7508 95.1628C65.9356 95.3585 66.1574 95.4931 66.4161 95.5665C66.6625 95.6888 66.9212 95.7377 67.2045 95.7255C67.3893 95.701 67.5618 95.6643 67.7466 95.6399C68.0915 95.542 68.3872 95.3585 68.6335 95.1017C68.7321 94.9671 68.843 94.8203 68.9415 94.6858C69.1263 94.3678 69.2125 94.0253 69.2002 93.6583C69.2002 93.5605 69.2002 93.4504 69.2002 93.3525C69.2002 93.0712 69.1386 92.8143 69.0031 92.5697C68.9169 92.3251 68.7691 92.1049 68.572 91.9214C68.3872 91.7257 68.1654 91.5912 67.9067 91.5178C67.6603 91.3955 67.4016 91.3465 67.1183 91.3588C66.9335 91.3832 66.761 91.4199 66.5762 91.4444C66.2313 91.5422 65.9356 91.7257 65.6892 91.9826C65.5907 92.1171 65.4798 92.2639 65.3813 92.3985C65.2088 92.7165 65.1226 93.059 65.1226 93.4259Z" fill="white"/>
<g opacity="0.57">
<path d="M162.309 18.7022C168.641 31.9247 165.438 49.8075 149.054 57.2444C128.37 66.6384 107.168 53.7095 104.766 32.1938C102.906 15.5587 116.753 3.49821 132.41 1.5656C146.306 -0.13461 157.184 7.99949 162.309 18.7022Z" fill="white"/>
</g>
<path d="M107.365 42.6152C105.875 43.7039 104.544 45.0004 103.423 46.456C103.053 46.933 102.709 47.4468 102.622 48.0461C102.474 49.0736 103.152 50.0277 103.817 50.8227C105.062 52.3272 106.404 53.7461 107.821 55.0916C108.486 55.7276 109.299 56.3882 110.223 56.2903C110.839 56.2291 111.357 55.8377 111.825 55.4463C113.118 54.3577 114.153 54.1008 115.077 52.6942" fill="white"/>
<path d="M104.125 45.6609C102.77 42.0404 97.5221 46.1869 95.9206 47.4712C92.4096 50.2845 87.9747 52.9878 88.1102 57.7337C88.258 62.8098 92.9147 68.522 98.2613 68.6566C103.324 68.7911 113.081 60.6081 111.689 57.171" fill="white"/>
<path d="M127.84 20.3657C125.29 21.0752 123.121 23.0322 122.173 25.4908L127.84 20.3657Z" fill="white"/>
<path d="M162.309 18.7022C157.184 7.99949 146.306 -0.13461 132.423 1.5656C116.753 3.49821 102.906 15.5587 104.766 32.1938C107.168 53.7095 128.37 66.6506 149.054 57.2444C165.438 49.8075 168.641 31.9247 162.309 18.7022ZM137.905 48.8902C129.54 50.5904 121.163 45.8567 117.073 38.7011C115.089 35.2273 114.055 30.8851 114.658 26.9097C115.225 23.228 117.048 19.9132 119.598 17.2222C124.698 11.8403 132.817 8.90464 140.036 11.4855C140.171 11.5345 140.295 11.5956 140.418 11.669C149.14 13.883 155.275 22.2128 155.041 31.2398C154.819 40.5603 146.565 47.1288 137.905 48.8902Z" fill="#C1B6BA"/>
<path d="M163.147 20.6227C163.677 22.6776 163.972 24.7937 163.886 27.0076C163.578 34.1632 160.806 43.2391 155.965 48.352C150.594 54.0275 143.436 57.3179 135.589 57.7093C128.591 58.0518 120.547 54.6146 114.141 51.8136C122.752 60.2168 136.008 63.1891 149.066 57.2567C164.662 50.1623 168.296 33.6005 163.147 20.6227Z" fill="#AA9BA1"/>
<path d="M150.667 44.2298C156.531 38.3219 157.455 29.8331 154.425 22.8855C152.712 18.9591 149.731 15.5342 145.666 13.3325C143.571 12.2072 141.317 11.51 139.013 11.1675C139.358 11.2653 139.703 11.3632 140.048 11.4855C140.184 11.5344 140.307 11.5956 140.43 11.669C149.152 13.8829 155.287 22.2127 155.053 31.2397C154.819 40.5603 146.565 47.141 137.905 48.9024C132.213 50.0644 126.522 48.2418 122.173 44.7069C125.24 47.3856 129.022 49.2449 133.051 49.8809C139.383 50.8594 146.171 48.7556 150.667 44.2298Z" fill="#C1B6BA"/>
<path d="M107.365 42.6152C105.875 43.7039 104.544 45.0004 103.423 46.456C103.053 46.933 102.709 47.4468 102.622 48.0461C102.474 49.0736 103.152 50.0277 103.817 50.8227C105.062 52.3272 106.404 53.7461 107.821 55.0916C108.486 55.7276 109.299 56.3882 110.223 56.2903C110.839 56.2291 111.357 55.8377 111.825 55.4463C113.118 54.3577 114.153 54.1008 115.077 52.6942" fill="white"/>
<path d="M98.249 68.6689C101.772 68.7545 105.456 66.0146 107.92 63.7884C109.164 62.6753 110.507 61.3543 111.233 59.8253C112.638 56.8897 110.593 57.4769 108.745 56.2414C108.338 55.9723 108.03 55.6054 107.735 55.2262C106.688 53.9541 105.653 52.6698 104.606 51.3977C103.891 50.517 103.14 49.5874 102.93 48.4743C102.622 46.8719 104.569 46.028 103.596 44.7681C103.004 43.9975 101.834 44.1932 101.033 44.3767C99.136 44.817 97.3989 46.2726 95.9206 47.4591C92.4096 50.2724 87.9747 52.9756 88.1102 57.7215C88.2457 62.8221 92.9024 68.5221 98.249 68.6689Z" fill="#126696"/>
<path d="M93.6538 50.8105C96.4749 48.3764 99.5917 46.3337 102.696 44.2665C102.142 44.1687 101.526 44.2788 101.033 44.3888C99.1482 44.8292 97.3989 46.2848 95.9205 47.4712C92.5943 50.15 88.4181 52.7186 88.1348 57.0364C89.5145 54.639 91.6211 52.5596 93.6538 50.8105Z" fill="#67A5C9"/>
<path d="M107.92 63.7884C109.164 62.6753 110.507 61.3543 111.233 59.8253C112.428 57.3178 111.11 57.379 109.546 56.6818C106.835 59.5073 104.027 62.2717 100.688 64.3511C98.5816 65.6721 96.3394 66.6751 93.9988 67.3478C95.3046 68.1307 96.746 68.6199 98.2489 68.6689C101.772 68.7545 105.456 66.0146 107.92 63.7884Z" fill="#0E4D72"/>
<path d="M127.84 20.3657C125.29 21.0752 123.121 23.0322 122.173 25.4908L127.84 20.3657Z" fill="#C1B6BA"/>
<path d="M161.114 19.4362C165.685 29.1726 164.798 41.4166 157.406 49.5629C149.374 58.4187 135.305 61.3788 124.267 56.8408C113.389 52.364 106.22 41.2943 106.01 29.6741C105.776 17.4546 115.077 7.85273 126.325 4.30553C133.1 2.16498 140.516 2.06713 147.046 5.10059C153.341 8.04844 158.108 13.2714 161.114 19.4362C161.903 21.0508 164.28 19.583 163.504 17.9806C160.585 11.9993 155.989 6.78857 150.101 3.54717C143.978 0.171208 136.981 -0.685012 130.131 0.525929C117.59 2.73987 105.653 11.8525 103.559 24.8548C101.514 37.5514 108.265 51.0797 119.377 57.5258C130.821 64.1676 146.048 62.6876 156.297 54.4189C167.225 45.6121 169.294 30.2613 163.517 17.9684C162.74 16.366 160.363 17.8216 161.114 19.4362Z" fill="#403D39"/>
<path d="M153.082 23.2892C156.162 30.6037 154.708 39.1537 148.45 44.3767C142.069 49.7097 132.768 49.991 125.795 45.661C119.007 41.441 114.597 32.9645 116.863 25.0383C118.859 18.1151 126.078 13.4182 133.002 12.4885C141.6 11.3388 149.67 15.7422 153.218 23.6072C153.957 25.234 156.334 23.7662 155.607 22.1516C151.986 14.1521 143.83 9.22267 135.022 9.52847C126.99 9.8098 118.65 14.3478 115.139 21.7357C111.11 30.2123 114.781 40.4992 121.816 46.2114C129.023 52.0582 139.124 53.1957 147.28 48.5354C156.433 43.3003 159.784 31.9981 155.755 22.4696C155.078 20.855 152.38 21.6256 153.082 23.2892Z" fill="#403D39"/>
<path d="M106.638 41.4288C105.579 42.2116 104.569 43.0678 103.657 44.0341C102.856 44.8904 101.969 45.8567 101.501 46.9331C100.368 49.6118 102.856 51.9481 104.519 53.7461C105.357 54.6635 106.219 55.5809 107.156 56.4004C108.166 57.2811 109.447 57.9783 110.827 57.5991C111.973 57.2933 112.798 56.4004 113.747 55.7644C114.757 55.0916 115.594 54.3944 116.284 53.3914C116.715 52.7676 116.358 51.838 115.742 51.4955C115.028 51.1041 114.264 51.4099 113.833 52.0337C113.426 52.6208 112.86 53 112.281 53.3914C111.923 53.6238 111.591 53.8685 111.258 54.1253C110.95 54.37 110.617 54.7369 110.248 54.8715C109.632 55.1039 108.979 54.2966 108.597 53.9296C107.858 53.2202 107.143 52.4985 106.454 51.7524C105.813 51.0552 105.135 50.3457 104.581 49.5751C104.113 48.9268 103.805 48.4253 104.248 47.7037C105.172 46.1869 106.675 44.8659 108.092 43.814C108.696 43.3614 108.979 42.5786 108.56 41.9058C108.191 41.2942 107.242 40.9762 106.638 41.4288Z" fill="#403D39"/>
<path d="M105.468 45.2696C103.485 40.5359 98.1874 43.9119 95.5018 46.0402C91.7444 49.0003 86.7921 52.1071 86.7058 57.4402C86.6196 62.4062 90.2538 67.4824 94.8242 69.3294C99.0497 71.0296 103.127 69.1704 106.577 66.6629C108.486 65.2807 110.273 63.6783 111.665 61.7702C112.663 60.388 113.66 58.5165 113.032 56.7796C112.428 55.1039 109.731 55.8745 110.347 57.5747C110.47 57.905 110.482 57.9539 110.334 58.4432C110.162 59.018 109.829 59.544 109.496 60.0333C108.597 61.3298 107.402 62.4674 106.183 63.4704C104.039 65.244 100.885 67.4946 97.9287 67.25C93.9742 66.932 90.7835 63.2013 89.8103 59.5929C88.6523 55.2874 91.7198 52.4863 94.8612 50.0644C95.7235 49.3917 101.932 43.9608 102.807 46.0524C103.46 47.6915 106.158 46.9209 105.468 45.2696Z" fill="#403D39"/>
<path d="M127.446 19.0326C125.93 19.4607 124.563 20.2558 123.405 21.3077C122.235 22.3719 121.397 23.6929 120.83 25.1485C120.707 25.4665 120.83 25.9435 120.99 26.2126C121.163 26.4939 121.508 26.763 121.84 26.8364C122.198 26.9098 122.604 26.8854 122.912 26.6774C123.232 26.4572 123.405 26.1881 123.54 25.8334C123.38 26.2493 123.59 25.7233 123.639 25.6255C123.701 25.5032 123.762 25.3686 123.836 25.2463C123.984 24.9772 124.144 24.7081 124.329 24.4512C124.378 24.3779 124.427 24.3167 124.477 24.2433C124.255 24.5736 124.415 24.3289 124.464 24.2555C124.551 24.1455 124.649 24.0354 124.735 23.9253C124.957 23.6806 125.179 23.4482 125.425 23.2281C125.536 23.118 125.672 23.0324 125.783 22.9223C125.696 23.0079 125.573 23.0935 125.733 22.959C125.807 22.91 125.869 22.8611 125.943 22.8122C126.201 22.6287 126.46 22.4575 126.731 22.3107C126.867 22.2373 127.002 22.1639 127.15 22.0905C127.224 22.0538 127.322 22.0294 127.384 21.9804C127.298 22.0538 127.113 22.0905 127.322 22.0049C127.63 21.8826 127.938 21.7725 128.246 21.6869C128.949 21.4912 129.441 20.6594 129.195 19.9622C128.936 19.2528 128.197 18.8124 127.446 19.0326Z" fill="#0473B3"/>
<path d="M120.695 32.1083C122.493 32.0716 122.444 29.295 120.633 29.3317C118.835 29.3561 118.884 32.1327 120.695 32.1083Z" fill="#0473B3"/>
</svg>
