<svg width="36" height="36" viewBox="0 0 36 36" fill="none" xmlns="http://www.w3.org/2000/svg">
<path opacity="0.6" d="M18 6C15.5718 5.99929 13.2006 6.73521 11.1995 8.11053C9.19843 9.48586 7.66165 11.4359 6.79218 13.703C5.92271 15.9701 5.76146 18.4477 6.32972 20.8084C6.89799 23.1691 8.16904 25.3019 9.97497 26.925C10.7275 25.4432 11.8756 24.1986 13.292 23.3293C14.7085 22.46 16.338 21.9999 18 22C17.0111 22 16.0444 21.7068 15.2221 21.1573C14.3999 20.6079 13.759 19.827 13.3806 18.9134C13.0021 17.9998 12.9031 16.9945 13.096 16.0245C13.289 15.0546 13.7652 14.1637 14.4644 13.4645C15.1637 12.7652 16.0546 12.289 17.0245 12.0961C17.9944 11.9031 18.9998 12.0022 19.9134 12.3806C20.827 12.759 21.6079 13.3999 22.1573 14.2221C22.7067 15.0444 23 16.0111 23 17C23 18.3261 22.4732 19.5979 21.5355 20.5355C20.5978 21.4732 19.3261 22 18 22C19.6619 21.9999 21.2914 22.46 22.7079 23.3293C24.1244 24.1986 25.2725 25.4432 26.025 26.925C27.8309 25.3019 29.1019 23.1691 29.6702 20.8084C30.2385 18.4477 30.0772 15.9701 29.2078 13.703C28.3383 11.4359 26.8015 9.48586 24.8004 8.11053C22.7993 6.73521 20.4281 5.99929 18 6Z" fill="#0582CA"/>
<path d="M18 30C24.6274 30 30 24.6274 30 18C30 11.3726 24.6274 6 18 6C11.3726 6 6 11.3726 6 18C6 24.6274 11.3726 30 18 30Z" stroke="#403D39" stroke-width="1.5" stroke-linecap="round" stroke-linejoin="round"/>
<path d="M18 22C20.7614 22 23 19.7614 23 17C23 14.2386 20.7614 12 18 12C15.2386 12 13 14.2386 13 17C13 19.7614 15.2386 22 18 22Z" stroke="#403D39" stroke-width="1.5" stroke-linecap="round" stroke-linejoin="round"/>
<path d="M9.97498 26.925C10.7274 25.443 11.8754 24.1983 13.2919 23.3289C14.7084 22.4595 16.3379 21.9992 18 21.9992C19.662 21.9992 21.2916 22.4595 22.708 23.3289C24.1245 24.1983 25.2726 25.443 26.025 26.925" stroke="#403D39" stroke-width="1.5" stroke-linecap="round" stroke-linejoin="round"/>
</svg>
